<svg xmlns="http://www.w3.org/2000/svg" xml:space="preserve" fill="none" stroke="#000" stroke-width="2" viewBox="0 0 347 347"><path d="M5 5h337v337H5z"/><circle cx="298" cy="40" r="16"/><circle cx="68.66" cy="66.64" r="15.42" style="opacity:1;fill:#000;stroke-width:2.17791;stroke-linecap:round;stroke-miterlimit:3;stop-color:#000"/><path d="M96.78 123.72h207.94v14.78H96.78z" style="opacity:1;fill:#000;stroke-width:2;stroke-linecap:round;stroke-miterlimit:3;stop-color:#000"/><rect width="39.89" height="39.73" x="49.1" y="111.72" rx="5" ry="5" style="opacity:1;fill:none;stroke-width:2;stroke-linecap:round;stroke-miterlimit:3;stop-color:#000"/><g transform="translate(0 50.34)"><path d="M96.78 123.72h207.94v14.78H96.78z" style="opacity:1;fill:#000;stroke-width:2;stroke-linecap:round;stroke-miterlimit:3;stop-color:#000"/><rect width="39.89" height="39.73" x="49.1" y="111.72" rx="5" ry="5" style="opacity:1;fill:none;stroke-width:2;stroke-linecap:round;stroke-miterlimit:3;stop-color:#000"/></g><g transform="translate(0 100.68)"><path d="M96.78 123.72h207.94v14.78H96.78z" style="opacity:1;fill:#000;stroke-width:2;stroke-linecap:round;stroke-miterlimit:3;stop-color:#000"/><rect width="39.89" height="39.73" x="49.1" y="111.72" rx="5" ry="5" style="opacity:1;fill:none;stroke-width:2;stroke-linecap:round;stroke-miterlimit:3;stop-color:#000"/></g><g transform="translate(0 151.03)"><path d="M96.78 123.72h207.94v14.78H96.78z" style="opacity:1;fill:#000;stroke-width:2;stroke-linecap:round;stroke-miterlimit:3;stop-color:#000"/><rect width="39.89" height="39.73" x="49.1" y="111.72" rx="5" ry="5" style="opacity:1;fill:none;stroke-width:2;stroke-linecap:round;stroke-miterlimit:3;stop-color:#000"/></g><rect width="116.3" height="39.44" x="106.75" y="46.52" rx="15" ry="5" style="opacity:1;fill:none;stroke-width:2;stroke-linecap:round;stroke-miterlimit:3;stop-color:#000"/></svg>